<svg width="56" height="51" viewBox="0 0 56 51" fill="none" xmlns="http://www.w3.org/2000/svg">
<path d="M0 22.0667L3.3829 29.0501L8.71747 25.9608L0 22.0667Z" fill="black"/>
<path d="M52.2007 12.5261L52.1617 19.7043H41.3625V7.0873L38.0967 0.0389404V8.98244L3.3829 29.0501L41.3625 51V39.2138H56V19.7043L52.2007 12.5261Z" fill="black"/>
<path d="M51.7323 13.5126H37.6283V1.34996L1.00186 22.521L37.6283 43.692V32.3342H51.7323V13.5126Z" fill="#FAFF07"/>
<path d="M38.0967 12.5261V0L0 22.0148L38.0967 44.0295V32.3082H52.2007L52.2007 12.5261L38.0967 12.5261ZM51.2249 31.3347H37.1208V42.3421L1.95167 22.0148L37.1208 1.68745V13.4996H51.2249V31.3347Z" fill="black"/>
</svg>
