<svg width="55" height="50" viewBox="0 0 55 50" fill="none" xmlns="http://www.w3.org/2000/svg">
<path d="M55 19.2826L51.2686 12.2488V12.2997H37.4291V8.89087C38.6176 8.21674 39.7932 7.52989 40.9816 6.85576C39.7932 4.57899 38.6176 2.31493 37.4291 0.0381582V0.0127194C37.4291 0.0127194 37.4291 0.0127194 37.4291 0V0.0254388L0.0255576 21.5976L0.0894517 21.6357L0 21.5976L3.32249 28.4279L7.60339 25.9603L37.4419 43.1697V31.684H51.2941V19.2826H55Z" fill="black"/>
<path d="M54.5783 19.359H40.5855V7.42815L4.24257 28.1735L40.5855 48.9316V37.7894H54.5783V19.359Z" fill="#FAFF07"/>
<path d="M40.9816 19.13L40.9816 6.85576L3.32249 28.4279L40.9944 50V38.5144H54.9489V19.13H40.9816ZM40.0105 37.5604V48.3465L5.23932 28.4279L40.0232 8.5093V20.084H53.9777V37.5604H40.0105Z" fill="black"/>
</svg>
