<svg width="56" height="51" viewBox="0 0 56 51" fill="none" xmlns="http://www.w3.org/2000/svg">
<path d="M56 22.0667L52.6171 29.0501L47.2825 25.9608L56 22.0667Z" fill="black"/>
<path d="M3.79926 12.5261L3.83829 19.7043H14.6375V7.0873L17.9033 0.0389404V8.98244L52.6171 29.0501L14.6375 51V39.2138H-3.8147e-06V19.7043L3.79926 12.5261Z" fill="black"/>
<path d="M4.26766 13.5126H18.3717V1.34996L54.9981 22.521L18.3717 43.692V32.3342H4.26766V13.5126Z" fill="#FAFF07"/>
<path d="M17.9033 12.5261V0L56 22.0148L17.9033 44.0295V32.3082H3.79926L3.79926 12.5261L17.9033 12.5261ZM4.7751 31.3347H18.8792V42.3421L54.0483 22.0148L18.8792 1.68745V13.4996H4.7751V31.3347Z" fill="black"/>
</svg>
