<svg width="55" height="50" viewBox="0 0 55 50" fill="none" xmlns="http://www.w3.org/2000/svg">
<path d="M0 19.2826L3.73141 12.2488V12.2997H17.5709V8.89087C16.3824 8.21674 15.2068 7.52989 14.0184 6.85576C15.2068 4.57899 16.3824 2.31493 17.5709 0.0381582V0.0127194C17.5709 0.0127194 17.5709 0.0127194 17.5709 0V0.0254388L54.9744 21.5976L54.9105 21.6357L55 21.5976L51.6775 28.4279L47.3966 25.9603L17.5581 43.1697V31.684H3.70586V19.2826H0Z" fill="black"/>
<path d="M0.4217 19.359H14.4145V7.42815L50.7574 28.1735L14.4145 48.9316V37.7894H0.4217V19.359Z" fill="#FAFF07"/>
<path d="M14.0184 19.13L14.0184 6.85576L51.6775 28.4279L14.0056 50V38.5144H0.0511093V19.13H14.0184ZM14.9895 37.5604V48.3465L49.7607 28.4279L14.9768 8.5093V20.084H1.0223V37.5604H14.9895Z" fill="black"/>
</svg>
