<svg width="610" height="139" viewBox="0 0 610 139" fill="none" xmlns="http://www.w3.org/2000/svg">
<g id="Group 37">
<g id="Group 36">
<path id="C" d="M251.821 126.111L258.783 127.441C258.529 129.381 257.981 131.037 257.14 132.408C256.299 133.78 255.187 134.865 253.805 135.663C252.434 136.46 250.632 136.976 248.4 137.211C245.692 137.495 243.436 137.337 241.631 136.736C239.837 136.123 238.212 134.89 236.757 133.039C235.303 131.187 234.413 128.714 234.088 125.621C233.654 121.496 234.415 118.214 236.369 115.775C238.334 113.323 241.322 111.886 245.333 111.465C248.472 111.135 251.003 111.51 252.926 112.591C254.861 113.671 256.403 115.479 257.552 118.016L250.913 120.244C250.595 119.51 250.287 118.981 249.99 118.657C249.497 118.113 248.923 117.715 248.266 117.463C247.61 117.211 246.896 117.126 246.126 117.207C244.381 117.39 243.117 118.233 242.336 119.736C241.743 120.852 241.564 122.527 241.798 124.759C242.089 127.523 242.708 129.377 243.655 130.32C244.6 131.252 245.832 131.638 247.351 131.478C248.824 131.324 249.891 130.793 250.551 129.888C251.224 128.981 251.647 127.722 251.821 126.111Z" fill="#0000CC"/>
<path id="L" d="M278.208 111.008L285.907 111.817L283.933 130.598L295.95 131.861L295.305 137.997L275.589 135.925L278.208 111.008Z" fill="#0000CC"/>
<path id="U" d="M327.947 111.515L335.629 110.707L337.19 125.562C337.345 127.035 337.259 128.453 336.933 129.816C336.617 131.167 336.018 132.387 335.135 133.476C334.263 134.553 333.31 135.346 332.275 135.856C330.838 136.569 329.071 137.035 326.975 137.255C325.763 137.383 324.428 137.437 322.971 137.418C321.526 137.398 320.295 137.19 319.279 136.793C318.263 136.384 317.303 135.757 316.401 134.913C315.51 134.067 314.866 133.167 314.468 132.212C313.825 130.676 313.439 129.295 313.311 128.072L311.749 113.217L319.432 112.41L321.031 127.621C321.173 128.981 321.659 130.007 322.488 130.699C323.327 131.378 324.415 131.647 325.752 131.507C327.078 131.368 328.075 130.885 328.745 130.058C329.424 129.219 329.691 128.109 329.546 126.726L327.947 111.515Z" fill="#0000CC"/>
<path id="B" d="M355.287 110.806L369.7 112.321C372.102 112.574 373.881 113.362 375.036 114.686C376.203 116.012 376.694 117.553 376.509 119.309C376.355 120.782 375.763 121.997 374.734 122.954C374.049 123.593 373.095 124.054 371.874 124.338C373.619 124.957 374.855 125.837 375.583 126.979C376.323 128.111 376.61 129.47 376.443 131.056C376.308 132.348 375.885 133.477 375.176 134.445C374.467 135.413 373.56 136.143 372.455 136.634C371.769 136.94 370.766 137.109 369.446 137.142C367.688 137.187 366.526 137.179 365.96 137.12L352.669 135.723L355.287 110.806ZM362.027 121.396L365.376 121.747C366.577 121.874 367.431 121.757 367.938 121.398C368.458 121.029 368.759 120.453 368.842 119.672C368.918 118.946 368.739 118.355 368.306 117.897C367.885 117.44 367.09 117.15 365.923 117.028L362.524 116.671L362.027 121.396ZM360.999 131.185L364.925 131.598C366.25 131.737 367.21 131.603 367.802 131.196C368.396 130.777 368.735 130.171 368.818 129.378C368.896 128.642 368.686 128.024 368.188 127.525C367.703 127.015 366.787 126.69 365.438 126.548L361.529 126.137L360.999 131.185Z" fill="#0000CC"/>
</g>
<g id="Group 32">
<rect id="Rectangle 158" x="0.75" y="2.75" width="48.5" height="47.5" fill="#D9D9D9" stroke="#FF0000" stroke-width="1.5"/>
<rect id="Rectangle 160" x="61.75" y="26.75" width="47.5" height="47.5" fill="#D9D9D9" stroke="#FF0000" stroke-width="1.5"/>
<rect id="Rectangle 162" x="121.75" y="1.75" width="47.5" height="47.5" fill="#D9D9D9" stroke="#FF0000" stroke-width="1.5"/>
<rect id="Rectangle 164" x="181.75" y="26.75" width="48.5" height="47.5" fill="#D9D9D9" stroke="#FF0000" stroke-width="1.5"/>
<rect id="Rectangle 166" x="258.75" y="26.75" width="47.5" height="47.5" fill="#D9D9D9" stroke="#FF0000" stroke-width="1.5"/>
<rect id="Rectangle 167" x="318.75" y="1.75" width="48.5" height="47.5" fill="#D9D9D9" stroke="#FF0000" stroke-width="1.5"/>
<rect id="Rectangle 168" x="379.75" y="26.75" width="47.5" height="47.5" fill="#D9D9D9" stroke="#FF0000" stroke-width="1.5"/>
<rect id="Rectangle 169" x="439.75" y="0.75" width="48.5" height="48.5" fill="#D9D9D9" stroke="#FF0000" stroke-width="1.5"/>
<rect id="Rectangle 170" x="500.75" y="26.75" width="47.5" height="47.5" fill="#D9D9D9" stroke="#FF0000" stroke-width="1.5"/>
<rect id="Rectangle 171" x="560.75" y="1.75" width="48.5" height="47.5" fill="#D9D9D9" stroke="#FF0000" stroke-width="1.5"/>
<path id="T" d="M13.1567 13.9463H36.6895V20.1328H28.7939V39H21.0522V20.1328H13.1567V13.9463Z" fill="#0000CC"/>
<path id="I" d="M81.5522 38.9463H89.311V64H81.5522V38.9463Z" fill="#FAFF06"/>
<path id="N" d="M134.037 12.9463H141.266L150.7 26.8062V12.9463H157.997V38H150.7L141.317 24.2427V38H134.037V12.9463Z" fill="#A1C001"/>
<path id="Y" d="M192.414 38.9463H201.01L206.068 47.4058L211.127 38.9463H219.672L209.931 53.5068V64H202.172V53.5068L192.414 38.9463Z" fill="#FF0000"/>
<path id="T_2" d="M270.657 38.9463H294.189V45.1328H286.294V64H278.552V45.1328H270.657V38.9463Z" fill="#FAFF06"/>
<path id="H" d="M331.02 12.9463H338.762V21.7134H347.221V12.9463H354.997V38H347.221V27.8657H338.762V38H331.02V12.9463Z" fill="#0000CC"/>
<path id="I_2" d="M400.052 38.9463H407.811V64H400.052V38.9463Z" fill="#A1C001"/>
<path id="N_2" d="M452.537 12.9463H459.766L469.2 26.8062V12.9463H476.497V38H469.2L459.817 24.2427V38H452.537V12.9463Z" fill="#FF0000"/>
<path id="G" d="M525.581 54.9253V49.7129H537.544V60.394C535.254 61.9549 533.226 63.0202 531.46 63.5898C529.705 64.1481 527.62 64.4272 525.205 64.4272C522.231 64.4272 519.805 63.9202 517.925 62.9062C516.056 61.8923 514.604 60.3826 513.567 58.3774C512.542 56.3722 512.029 54.0708 512.029 51.4731C512.029 48.7388 512.593 46.3633 513.721 44.3467C514.849 42.3187 516.501 40.7806 518.677 39.7324C520.374 38.9235 522.659 38.519 525.53 38.519C528.298 38.519 530.366 38.7697 531.733 39.271C533.112 39.7723 534.251 40.5527 535.151 41.6123C536.063 42.6605 536.746 43.9935 537.202 45.6113L529.734 46.9443C529.426 45.9987 528.902 45.2752 528.162 44.7739C527.432 44.2726 526.498 44.022 525.359 44.022C523.661 44.022 522.306 44.6144 521.292 45.7993C520.289 46.9728 519.788 48.8356 519.788 51.3877C519.788 54.0993 520.295 56.0361 521.309 57.1982C522.334 58.3604 523.758 58.9414 525.581 58.9414C526.447 58.9414 527.273 58.8161 528.059 58.5654C528.845 58.3148 529.745 57.8875 530.759 57.2837V54.9253H525.581Z" fill="#0000CC"/>
<path id="S" d="M574.567 29.7114L581.933 29.25C582.092 30.4463 582.417 31.3577 582.907 31.9844C583.704 32.9984 584.844 33.5054 586.325 33.5054C587.43 33.5054 588.279 33.249 588.871 32.7363C589.475 32.2122 589.777 31.6084 589.777 30.9248C589.777 30.2754 589.492 29.6943 588.922 29.1816C588.353 28.6689 587.031 28.1847 584.958 27.729C581.562 26.9657 579.141 25.9517 577.694 24.687C576.236 23.4224 575.507 21.8102 575.507 19.8506C575.507 18.5632 575.877 17.3498 576.618 16.2104C577.37 15.0597 578.492 14.1597 579.984 13.5103C581.488 12.8494 583.545 12.519 586.154 12.519C589.355 12.519 591.793 13.1172 593.468 14.3135C595.154 15.4984 596.157 17.3896 596.476 19.9873L589.179 20.4146C588.985 19.2866 588.575 18.4663 587.948 17.9536C587.333 17.4409 586.479 17.1846 585.385 17.1846C584.485 17.1846 583.807 17.3783 583.351 17.7656C582.895 18.1416 582.667 18.603 582.667 19.1499C582.667 19.5487 582.855 19.9076 583.231 20.2266C583.596 20.557 584.462 20.8646 585.829 21.1494C589.213 21.8786 591.634 22.6191 593.092 23.3711C594.562 24.1117 595.627 25.0345 596.288 26.1396C596.96 27.2448 597.296 28.481 597.296 29.8481C597.296 31.4546 596.852 32.9357 595.963 34.2915C595.075 35.6473 593.833 36.6784 592.238 37.3848C590.643 38.0798 588.632 38.4272 586.205 38.4272C581.944 38.4272 578.993 37.6069 577.353 35.9663C575.712 34.3257 574.783 32.2407 574.567 29.7114Z" fill="#A1C001"/>
</g>
</g>
</svg>
