<svg width="610" height="146" viewBox="0 0 610 146" fill="none" xmlns="http://www.w3.org/2000/svg">
<g id="Group 37">
<g id="Group 36">
<path id="C" d="M250.623 134.763L257.407 136.814C256.951 138.717 256.234 140.306 255.254 141.582C254.274 142.858 253.055 143.821 251.597 144.47C250.15 145.12 248.304 145.444 246.06 145.444C243.337 145.444 241.109 145.051 239.377 144.265C237.657 143.468 236.17 142.072 234.917 140.078C233.664 138.084 233.037 135.532 233.037 132.422C233.037 128.275 234.137 125.09 236.335 122.869C238.546 120.636 241.667 119.519 245.701 119.519C248.857 119.519 251.335 120.157 253.135 121.433C254.946 122.709 256.291 124.669 257.168 127.312L250.332 128.833C250.093 128.07 249.842 127.511 249.58 127.158C249.147 126.566 248.617 126.11 247.991 125.791C247.364 125.472 246.663 125.312 245.889 125.312C244.134 125.312 242.79 126.019 241.855 127.432C241.149 128.48 240.796 130.126 240.796 132.371C240.796 135.151 241.217 137.059 242.061 138.096C242.904 139.121 244.089 139.634 245.615 139.634C247.096 139.634 248.213 139.218 248.965 138.386C249.728 137.555 250.281 136.347 250.623 134.763Z" fill="#0000CC"/>
<path id="L" d="M277.891 119.946H285.633V138.831H297.715V145H277.891V119.946Z" fill="#0000CC"/>
<path id="U" d="M328.29 119.946H336.014V134.883C336.014 136.364 335.781 137.765 335.313 139.087C334.858 140.397 334.134 141.548 333.143 142.539C332.163 143.519 331.132 144.208 330.05 144.607C328.546 145.165 326.74 145.444 324.632 145.444C323.413 145.444 322.08 145.359 320.633 145.188C319.198 145.017 317.996 144.681 317.027 144.18C316.059 143.667 315.17 142.944 314.361 142.009C313.564 141.075 313.017 140.112 312.721 139.121C312.242 137.526 312.003 136.113 312.003 134.883V119.946H319.728V135.242C319.728 136.609 320.104 137.68 320.855 138.455C321.619 139.218 322.673 139.6 324.017 139.6C325.35 139.6 326.393 139.224 327.145 138.472C327.908 137.708 328.29 136.632 328.29 135.242V119.946Z" fill="#0000CC"/>
<path id="B" d="M354.96 119.946H369.452C371.868 119.946 373.719 120.544 375.006 121.741C376.305 122.937 376.955 124.418 376.955 126.184C376.955 127.665 376.493 128.936 375.57 129.995C374.955 130.701 374.055 131.26 372.87 131.67C374.67 132.103 375.992 132.849 376.835 133.909C377.689 134.957 378.117 136.278 378.117 137.874C378.117 139.172 377.815 140.34 377.211 141.377C376.607 142.414 375.781 143.234 374.733 143.838C374.083 144.214 373.104 144.487 371.793 144.658C370.05 144.886 368.894 145 368.324 145H354.96V119.946ZM362.77 129.773H366.137C367.344 129.773 368.182 129.568 368.649 129.158C369.127 128.736 369.367 128.132 369.367 127.346C369.367 126.617 369.127 126.047 368.649 125.637C368.182 125.227 367.361 125.022 366.188 125.022H362.77V129.773ZM362.77 139.617H366.718C368.051 139.617 368.991 139.383 369.538 138.916C370.084 138.438 370.358 137.799 370.358 137.002C370.358 136.261 370.084 135.669 369.538 135.225C369.002 134.769 368.056 134.541 366.701 134.541H362.77V139.617Z" fill="#0000CC"/>
</g>
<g id="Group 32">
<rect id="Rectangle 158" x="0.5" y="2.5" width="49" height="48" fill="#D9D9D9" stroke="#FF0000"/>
<rect id="Rectangle 160" x="61.5" y="26.5" width="48" height="48" fill="#D9D9D9" stroke="#FF0000"/>
<rect id="Rectangle 162" x="121.5" y="1.5" width="48" height="48" fill="#D9D9D9" stroke="#FF0000"/>
<rect id="Rectangle 164" x="181.5" y="26.5" width="49" height="48" fill="#D9D9D9" stroke="#FF0000"/>
<rect id="Rectangle 166" x="258.5" y="26.5" width="48" height="48" fill="#D9D9D9" stroke="#FF0000"/>
<rect id="Rectangle 167" x="318.5" y="1.5" width="49" height="48" fill="#D9D9D9" stroke="#FF0000"/>
<rect id="Rectangle 168" x="379.5" y="26.5" width="48" height="48" fill="#D9D9D9" stroke="#FF0000"/>
<rect id="Rectangle 169" x="439.5" y="0.5" width="49" height="49" fill="#D9D9D9" stroke="#FF0000"/>
<rect id="Rectangle 170" x="500.5" y="26.5" width="48" height="48" fill="#D9D9D9" stroke="#FF0000"/>
<rect id="Rectangle 171" x="560.5" y="1.5" width="49" height="48" fill="#D9D9D9" stroke="#FF0000"/>
<path id="T" d="M13.1567 13.9463H36.6895V20.1328H28.7939V39H21.0522V20.1328H13.1567V13.9463Z" fill="#0000CC"/>
<path id="I" d="M81.5522 38.9463H89.311V64H81.5522V38.9463Z" fill="#FAFF06"/>
<path id="N" d="M134.037 12.9463H141.266L150.7 26.8062V12.9463H157.997V38H150.7L141.317 24.2427V38H134.037V12.9463Z" fill="#A1C001"/>
<path id="Y" d="M192.414 38.9463H201.01L206.068 47.4058L211.127 38.9463H219.672L209.931 53.5068V64H202.172V53.5068L192.414 38.9463Z" fill="#FF0000"/>
<path id="T_2" d="M270.657 38.9463H294.189V45.1328H286.294V64H278.552V45.1328H270.657V38.9463Z" fill="#FAFF06"/>
<path id="H" d="M331.02 12.9463H338.762V21.7134H347.221V12.9463H354.997V38H347.221V27.8657H338.762V38H331.02V12.9463Z" fill="#0000CC"/>
<path id="I_2" d="M400.052 38.9463H407.811V64H400.052V38.9463Z" fill="#A1C001"/>
<path id="N_2" d="M452.537 12.9463H459.766L469.2 26.8062V12.9463H476.497V38H469.2L459.817 24.2427V38H452.537V12.9463Z" fill="#FF0000"/>
<path id="G" d="M525.581 54.9253V49.7129H537.544V60.394C535.254 61.9549 533.226 63.0202 531.46 63.5898C529.705 64.1481 527.62 64.4272 525.205 64.4272C522.231 64.4272 519.805 63.9202 517.925 62.9062C516.056 61.8923 514.604 60.3826 513.567 58.3774C512.542 56.3722 512.029 54.0708 512.029 51.4731C512.029 48.7388 512.593 46.3633 513.721 44.3467C514.849 42.3187 516.501 40.7806 518.677 39.7324C520.374 38.9235 522.659 38.519 525.53 38.519C528.298 38.519 530.366 38.7697 531.733 39.271C533.112 39.7723 534.251 40.5527 535.151 41.6123C536.063 42.6605 536.746 43.9935 537.202 45.6113L529.734 46.9443C529.426 45.9987 528.902 45.2752 528.162 44.7739C527.432 44.2726 526.498 44.022 525.359 44.022C523.661 44.022 522.306 44.6144 521.292 45.7993C520.289 46.9728 519.788 48.8356 519.788 51.3877C519.788 54.0993 520.295 56.0361 521.309 57.1982C522.334 58.3604 523.758 58.9414 525.581 58.9414C526.447 58.9414 527.273 58.8161 528.059 58.5654C528.845 58.3148 529.745 57.8875 530.759 57.2837V54.9253H525.581Z" fill="#0000CC"/>
<path id="S" d="M574.567 29.7114L581.933 29.25C582.092 30.4463 582.417 31.3577 582.907 31.9844C583.704 32.9984 584.844 33.5054 586.325 33.5054C587.43 33.5054 588.279 33.249 588.871 32.7363C589.475 32.2122 589.777 31.6084 589.777 30.9248C589.777 30.2754 589.492 29.6943 588.922 29.1816C588.353 28.6689 587.031 28.1847 584.958 27.729C581.562 26.9657 579.141 25.9517 577.694 24.687C576.236 23.4224 575.507 21.8102 575.507 19.8506C575.507 18.5632 575.877 17.3498 576.618 16.2104C577.37 15.0597 578.492 14.1597 579.984 13.5103C581.488 12.8494 583.545 12.519 586.154 12.519C589.355 12.519 591.793 13.1172 593.468 14.3135C595.154 15.4984 596.157 17.3896 596.476 19.9873L589.179 20.4146C588.985 19.2866 588.575 18.4663 587.948 17.9536C587.333 17.4409 586.479 17.1846 585.385 17.1846C584.485 17.1846 583.807 17.3783 583.351 17.7656C582.895 18.1416 582.667 18.603 582.667 19.1499C582.667 19.5487 582.855 19.9076 583.231 20.2266C583.596 20.557 584.462 20.8646 585.829 21.1494C589.213 21.8786 591.634 22.6191 593.092 23.3711C594.562 24.1117 595.627 25.0345 596.288 26.1396C596.96 27.2448 597.296 28.481 597.296 29.8481C597.296 31.4546 596.852 32.9357 595.963 34.2915C595.075 35.6473 593.833 36.6784 592.238 37.3848C590.643 38.0798 588.632 38.4272 586.205 38.4272C581.944 38.4272 578.993 37.6069 577.353 35.9663C575.712 34.3257 574.783 32.2407 574.567 29.7114Z" fill="#A1C001"/>
</g>
</g>
</svg>
