<svg width="70" height="141" viewBox="0 0 70 141" fill="none" xmlns="http://www.w3.org/2000/svg">
<g id="small logo">
<g id="Group 35">
<g id="Group 34">
<rect id="Rectangle 127" x="21.5" y="93.5" width="47" height="46" fill="#D9D9D9" stroke="#0000CC" stroke-width="3"/>
<path id="C" d="M50.6226 119.763L57.4072 121.814C56.9515 123.717 56.2337 125.306 55.2539 126.582C54.2741 127.858 53.055 128.821 51.5967 129.47C50.1497 130.12 48.304 130.444 46.0596 130.444C43.3366 130.444 41.1092 130.051 39.3774 129.265C37.6571 128.468 36.1702 127.072 34.917 125.078C33.6637 123.084 33.0371 120.532 33.0371 117.422C33.0371 113.275 34.1366 110.09 36.3354 107.869C38.5457 105.636 41.6675 104.519 45.7007 104.519C48.8566 104.519 51.3346 105.157 53.1348 106.433C54.9463 107.709 56.2907 109.669 57.168 112.312L50.332 113.833C50.0928 113.07 49.8421 112.511 49.5801 112.158C49.1471 111.566 48.6174 111.11 47.9907 110.791C47.3641 110.472 46.6634 110.312 45.8887 110.312C44.1341 110.312 42.7897 111.019 41.8555 112.432C41.1491 113.48 40.7959 115.126 40.7959 117.371C40.7959 120.151 41.2174 122.059 42.0605 123.096C42.9036 124.121 44.0885 124.634 45.6152 124.634C47.0964 124.634 48.2129 124.218 48.9648 123.386C49.7282 122.555 50.2808 121.347 50.6226 119.763Z" fill="#FF0000"/>
</g>
<g id="Group 33">
<rect id="Rectangle 128" x="1.5" y="47.5" width="46" height="46" fill="#D9D9D9" stroke="#0000CC" stroke-width="3"/>
<path id="T" d="M12.6567 58.9463H36.1895V65.1328H28.2939V84H20.5522V65.1328H12.6567V58.9463Z" fill="#FAFF06"/>
</g>
<g id="Group 32">
<rect id="Rectangle 129" x="21.5" y="1.5" width="47" height="46" fill="#D9D9D9" stroke="#0000CC" stroke-width="3"/>
<path id="T_2" d="M33.1567 12.9463H56.6895V19.1328H48.7939V38H41.0522V19.1328H33.1567V12.9463Z" fill="#0000CC"/>
</g>
</g>
</g>
</svg>
