<svg width="177" height="106" viewBox="0 0 177 106" fill="none" xmlns="http://www.w3.org/2000/svg">
<rect x="1.75" y="5.48682" width="173.136" height="72.4226" fill="#D9D9D9" stroke="#0000CC" stroke-width="3.5"/>
<path d="M21.2072 22.4409H59.5319V32.5161H46.6735V63.2426H34.0656V32.5161H21.2072V22.4409Z" fill="#0000CC"/>
<path d="M21.2072 22.4409V20.6909H19.4572V22.4409H21.2072ZM59.5319 22.4409H61.2819V20.6909H59.5319V22.4409ZM59.5319 32.5161V34.2661H61.2819V32.5161H59.5319ZM46.6735 32.5161V30.7661H44.9235V32.5161H46.6735ZM46.6735 63.2426V64.9926H48.4235V63.2426H46.6735ZM34.0656 63.2426H32.3156V64.9926H34.0656V63.2426ZM34.0656 32.5161H35.8156V30.7661H34.0656V32.5161ZM21.2072 32.5161H19.4572V34.2661H21.2072V32.5161ZM21.2072 24.1909H59.5319V20.6909H21.2072V24.1909ZM57.7819 22.4409V32.5161H61.2819V22.4409H57.7819ZM59.5319 30.7661H46.6735V34.2661H59.5319V30.7661ZM44.9235 32.5161V63.2426H48.4235V32.5161H44.9235ZM46.6735 61.4926H34.0656V64.9926H46.6735V61.4926ZM35.8156 63.2426V32.5161H32.3156V63.2426H35.8156ZM34.0656 30.7661H21.2072V34.2661H34.0656V30.7661ZM22.9572 32.5161V22.4409H19.4572V32.5161H22.9572Z" fill="#0000CC"/>
<path d="M145.069 46.5712L156.118 49.9111C155.376 53.0097 154.207 55.5981 152.611 57.6762C151.015 59.7543 149.03 61.3222 146.655 62.3798C144.299 63.4374 141.293 63.9662 137.638 63.9662C133.203 63.9662 129.575 63.3261 126.755 62.0458C123.953 60.747 121.532 58.4741 119.491 55.227C117.45 51.9799 116.429 47.8237 116.429 42.7582C116.429 36.0043 118.22 30.8183 121.801 27.2001C125.401 23.5634 130.485 21.7451 137.053 21.7451C142.193 21.7451 146.228 22.7841 149.16 24.8622C152.11 26.9404 154.3 30.1318 155.728 34.4365L144.596 36.9135C144.206 35.6703 143.798 34.7612 143.371 34.186C142.666 33.2211 141.803 32.4789 140.783 31.9594C139.762 31.4399 138.621 31.1801 137.359 31.1801C134.502 31.1801 132.312 32.3305 130.791 34.6313C129.64 36.3383 129.065 39.0195 129.065 42.6747C129.065 47.2021 129.752 50.31 131.125 51.9985C132.498 53.6684 134.428 54.5034 136.914 54.5034C139.326 54.5034 141.144 53.8261 142.369 52.4716C143.612 51.1171 144.512 49.1503 145.069 46.5712Z" fill="#FF0000"/>
<path d="M145.069 46.5712L145.575 44.8961L143.758 44.347L143.358 46.202L145.069 46.5712ZM156.118 49.9111L157.82 50.3187L158.204 48.7135L156.624 48.2359L156.118 49.9111ZM146.655 62.3798L145.943 60.7812L145.939 60.7833L146.655 62.3798ZM126.755 62.0458L126.019 63.6336L126.032 63.6393L126.755 62.0458ZM121.801 27.2001L120.557 25.9691L120.557 25.9691L121.801 27.2001ZM149.16 24.8622L148.148 26.2899L148.152 26.2929L149.16 24.8622ZM155.728 34.4365L156.108 36.1447L157.999 35.7239L157.389 33.8852L155.728 34.4365ZM144.596 36.9135L142.926 37.4369L143.406 38.9709L144.976 38.6217L144.596 36.9135ZM143.371 34.186L141.958 35.2185L141.965 35.2287L143.371 34.186ZM130.791 34.6313L132.242 35.6093L132.246 35.6029L132.251 35.5966L130.791 34.6313ZM131.125 51.9985L129.767 53.1026L129.773 53.1099L131.125 51.9985ZM142.369 52.4716L141.08 51.2883L141.071 51.298L142.369 52.4716ZM144.562 48.2464L155.612 51.5862L156.624 48.2359L145.575 44.8961L144.562 48.2464ZM154.416 49.5034C153.719 52.4136 152.64 54.7646 151.223 56.6104L153.999 58.742C155.773 56.4316 157.033 53.6058 157.82 50.3187L154.416 49.5034ZM151.223 56.6104C149.803 58.4593 148.05 59.8431 145.943 60.7812L147.367 63.9785C150.01 62.8013 152.227 61.0494 153.999 58.742L151.223 56.6104ZM145.939 60.7833C143.881 61.7069 141.141 62.2162 137.638 62.2162V65.7162C141.444 65.7162 144.717 65.168 147.372 63.9764L145.939 60.7833ZM137.638 62.2162C133.353 62.2162 129.996 61.595 127.479 60.4523L126.032 63.6393C129.155 65.0573 133.053 65.7162 137.638 65.7162V62.2162ZM127.491 60.4581C125.063 59.3324 122.877 57.3259 120.973 54.2957L118.009 56.1583C120.187 59.6223 122.844 62.1616 126.019 63.6335L127.491 60.4581ZM120.973 54.2957C119.155 51.4038 118.179 47.5975 118.179 42.7582H114.679C114.679 48.0499 115.745 52.5561 118.009 56.1583L120.973 54.2957ZM118.179 42.7582C118.179 36.3097 119.883 31.6256 123.045 28.4312L120.557 25.9691C116.557 30.011 114.679 35.699 114.679 42.7582H118.179ZM123.045 28.4312C126.229 25.2138 130.813 23.4951 137.053 23.4951V19.9951C130.156 19.9951 124.572 21.913 120.557 25.9691L123.045 28.4312ZM137.053 23.4951C141.98 23.4951 145.615 24.4942 148.148 26.2899L150.172 23.4346C146.842 21.0741 142.405 19.9951 137.053 19.9951V23.4951ZM148.152 26.2929C150.725 28.1054 152.726 30.9461 154.067 34.9877L157.389 33.8852C155.873 29.3174 153.495 25.7754 150.168 23.4316L148.152 26.2929ZM155.348 32.7282L144.215 35.2053L144.976 38.6217L156.108 36.1447L155.348 32.7282ZM146.265 36.3901C145.857 35.087 145.379 33.9552 144.776 33.1432L141.965 35.2287C142.217 35.5672 142.555 36.2537 142.926 37.4369L146.265 36.3901ZM144.784 33.1534C143.924 31.9767 142.853 31.0495 141.576 30.3999L139.989 33.5189C140.753 33.9084 141.408 34.4655 141.958 35.2185L144.784 33.1534ZM141.576 30.3999C140.286 29.7428 138.868 29.4301 137.359 29.4301V32.9301C138.373 32.9301 139.238 33.137 139.989 33.5189L141.576 30.3999ZM137.359 29.4301C133.94 29.4301 131.19 30.8545 129.331 33.666L132.251 35.5966C133.434 33.8065 135.064 32.9301 137.359 32.9301V29.4301ZM129.34 33.6533C127.895 35.7974 127.315 38.9075 127.315 42.6747H130.815C130.815 39.1314 131.386 36.8792 132.242 35.6093L129.34 33.6533ZM127.315 42.6747C127.315 47.2446 127.981 50.906 129.767 53.1026L132.483 50.8944C131.523 49.714 130.815 47.1596 130.815 42.6747H127.315ZM129.773 53.1099C131.531 55.2475 133.992 56.2534 136.914 56.2534V52.7534C134.863 52.7534 133.465 52.0893 132.477 50.887L129.773 53.1099ZM136.914 56.2534C139.653 56.2534 142.013 55.4748 143.667 53.6453L141.071 51.298C140.276 52.1775 138.999 52.7534 136.914 52.7534V56.2534ZM143.658 53.6549C145.184 51.9928 146.184 49.6988 146.779 46.9404L143.358 46.202C142.84 48.6018 142.04 50.2415 141.08 51.2883L143.658 53.6549Z" fill="#0000CC"/>
<path d="M68.9158 22.4409H107.24V32.5161H94.3821V63.2426H81.7742V32.5161H68.9158V22.4409Z" fill="#FAFF06"/>
<path d="M68.9158 22.4409V20.6909H67.1658V22.4409H68.9158ZM107.24 22.4409H108.99V20.6909H107.24V22.4409ZM107.24 32.5161V34.2661H108.99V32.5161H107.24ZM94.3821 32.5161V30.7661H92.6321V32.5161H94.3821ZM94.3821 63.2426V64.9926H96.1321V63.2426H94.3821ZM81.7742 63.2426H80.0242V64.9926H81.7742V63.2426ZM81.7742 32.5161H83.5242V30.7661H81.7742V32.5161ZM68.9158 32.5161H67.1658V34.2661H68.9158V32.5161ZM68.9158 24.1909H107.24V20.6909H68.9158V24.1909ZM105.49 22.4409V32.5161H108.99V22.4409H105.49ZM107.24 30.7661H94.3821V34.2661H107.24V30.7661ZM92.6321 32.5161V63.2426H96.1321V32.5161H92.6321ZM94.3821 61.4926H81.7742V64.9926H94.3821V61.4926ZM83.5242 63.2426V32.5161H80.0242V63.2426H83.5242ZM81.7742 30.7661H68.9158V34.2661H81.7742V30.7661ZM70.6658 32.5161V22.4409H67.1658V32.5161H70.6658Z" fill="#0000CC"/>
<path d="M27.083 102.506V94.7741H24.3217V93.1999H31.7167V94.7741H28.9619V102.506H27.083ZM33.5284 102.506V93.1999H35.4073V102.506H33.5284ZM37.8727 102.506V93.1999H39.7008L43.5094 99.4142V93.1999H45.255V102.506H43.3698L39.6183 96.4372V102.506H37.8727ZM50.342 102.506V98.5891L46.9333 93.1999H49.136L51.3259 96.8815L53.4714 93.1999H55.636L52.2146 98.6017V102.506H50.342ZM63.3408 102.506V94.7741H60.5795V93.1999H67.9746V94.7741H65.2197V102.506H63.3408ZM69.8497 102.506V93.1999H71.7286V96.8625H75.4102V93.1999H77.2891V102.506H75.4102V98.4367H71.7286V102.506H69.8497ZM79.8307 102.506V93.1999H81.7096V102.506H79.8307ZM84.175 102.506V93.1999H86.0032L89.8118 99.4142V93.1999H91.5574V102.506H89.6721L85.9207 96.4372V102.506H84.175ZM98.5296 99.0842V97.5163H102.579V101.223C102.186 101.604 101.615 101.941 100.866 102.233C100.121 102.52 99.3654 102.664 98.5995 102.664C97.6261 102.664 96.7777 102.461 96.054 102.055C95.3304 101.644 94.7866 101.06 94.4227 100.303C94.0588 99.5412 93.8768 98.7139 93.8768 97.821C93.8768 96.8519 94.0799 95.9907 94.4862 95.2375C94.8924 94.4842 95.487 93.9066 96.2699 93.5046C96.8665 93.1957 97.6092 93.0412 98.4979 93.0412C99.6532 93.0412 100.555 93.2845 101.202 93.7712C101.854 94.2536 102.273 94.9222 102.459 95.777L100.593 96.1262C100.461 95.6691 100.214 95.3094 99.8499 95.0471C99.4902 94.7805 99.0396 94.6472 98.4979 94.6472C97.6769 94.6472 97.0231 94.9074 96.5365 95.4279C96.054 95.9484 95.8128 96.7207 95.8128 97.7448C95.8128 98.8493 96.0583 99.6787 96.5492 100.233C97.04 100.783 97.6833 101.058 98.4789 101.058C98.8724 101.058 99.266 100.982 99.6595 100.83C100.057 100.673 100.398 100.485 100.681 100.265V99.0842H98.5296ZM104.493 99.4777L106.321 99.3C106.431 99.9136 106.653 100.364 106.987 100.652C107.326 100.94 107.781 101.084 108.352 101.084C108.957 101.084 109.412 100.957 109.717 100.703C110.026 100.445 110.18 100.144 110.18 99.8015C110.18 99.5814 110.115 99.3952 109.983 99.2429C109.856 99.0863 109.632 98.9509 109.31 98.8366C109.09 98.7604 108.589 98.625 107.806 98.4304C106.799 98.1807 106.092 97.8739 105.686 97.5099C105.115 96.9979 104.829 96.3737 104.829 95.6374C104.829 95.1634 104.962 94.7212 105.229 94.3107C105.5 93.896 105.887 93.5807 106.391 93.3649C106.898 93.1491 107.51 93.0412 108.225 93.0412C109.393 93.0412 110.271 93.2972 110.859 93.8093C111.452 94.3213 111.763 95.0047 111.792 95.8596L109.914 95.9421C109.833 95.4639 109.66 95.1211 109.393 94.9138C109.131 94.7022 108.735 94.5964 108.206 94.5964C107.66 94.5964 107.233 94.7085 106.924 94.9328C106.725 95.0767 106.625 95.2692 106.625 95.5104C106.625 95.7305 106.719 95.9188 106.905 96.0754C107.142 96.2743 107.717 96.4816 108.631 96.6974C109.545 96.9133 110.22 97.1376 110.656 97.3703C111.096 97.5988 111.439 97.9141 111.685 98.3161C111.934 98.7139 112.059 99.2069 112.059 99.7951C112.059 100.328 111.911 100.828 111.615 101.293C111.318 101.759 110.9 102.106 110.358 102.334C109.816 102.558 109.141 102.671 108.333 102.671C107.157 102.671 106.253 102.4 105.623 101.858C104.992 101.312 104.615 100.519 104.493 99.4777ZM124.512 99.0842L126.334 99.6618C126.054 100.677 125.589 101.433 124.937 101.928C124.29 102.419 123.467 102.664 122.468 102.664C121.232 102.664 120.217 102.243 119.421 101.401C118.625 100.555 118.228 99.3994 118.228 97.9352C118.228 96.3864 118.628 95.1846 119.427 94.3298C120.227 93.4707 121.279 93.0412 122.582 93.0412C123.721 93.0412 124.645 93.3776 125.356 94.0505C125.779 94.4483 126.097 95.0196 126.308 95.7643L124.448 96.2087C124.338 95.7263 124.108 95.3454 123.756 95.0661C123.409 94.7868 122.986 94.6472 122.487 94.6472C121.797 94.6472 121.236 94.8947 120.805 95.3898C120.377 95.8849 120.164 96.6869 120.164 97.7956C120.164 98.972 120.375 99.8099 120.798 100.309C121.222 100.809 121.772 101.058 122.449 101.058C122.948 101.058 123.378 100.9 123.737 100.582C124.097 100.265 124.355 99.7655 124.512 99.0842ZM128.653 102.506V93.2761H130.532V100.938H135.204V102.506H128.653ZM137.187 93.1999H139.066V98.2399C139.066 99.0397 139.089 99.5581 139.136 99.7951C139.216 100.176 139.406 100.483 139.707 100.716C140.012 100.944 140.426 101.058 140.951 101.058C141.484 101.058 141.886 100.95 142.157 100.735C142.428 100.515 142.591 100.246 142.646 99.9284C142.701 99.611 142.728 99.0842 142.728 98.3478V93.1999H144.607V98.0876C144.607 99.2048 144.556 99.994 144.455 100.455C144.353 100.917 144.165 101.306 143.89 101.623C143.619 101.941 143.255 102.195 142.798 102.385C142.341 102.571 141.744 102.664 141.008 102.664C140.119 102.664 139.445 102.563 138.983 102.36C138.526 102.152 138.164 101.886 137.898 101.56C137.631 101.23 137.456 100.885 137.371 100.525C137.248 99.9919 137.187 99.2048 137.187 98.1638V93.1999ZM147.25 93.1999H150.97C151.706 93.1999 152.254 93.2316 152.614 93.2951C152.978 93.3543 153.302 93.4813 153.585 93.676C153.873 93.8706 154.112 94.1309 154.303 94.4567C154.493 94.7783 154.588 95.1402 154.588 95.5422C154.588 95.978 154.47 96.378 154.233 96.7419C154 97.1058 153.683 97.3788 153.281 97.5607C153.848 97.7258 154.284 98.0072 154.588 98.405C154.893 98.8028 155.045 99.2704 155.045 99.8078C155.045 100.231 154.946 100.644 154.747 101.046C154.552 101.443 154.284 101.763 153.941 102.004C153.602 102.241 153.183 102.387 152.684 102.442C152.371 102.476 151.615 102.497 150.418 102.506H147.25V93.1999ZM149.129 94.7487V96.9006H150.361C151.093 96.9006 151.548 96.89 151.726 96.8688C152.047 96.8307 152.299 96.7207 152.481 96.5388C152.667 96.3526 152.76 96.1092 152.76 95.8088C152.76 95.521 152.68 95.2883 152.519 95.1105C152.362 94.9286 152.128 94.8185 151.814 94.7805C151.628 94.7593 151.093 94.7487 150.208 94.7487H149.129ZM149.129 98.4494V100.938H150.869C151.546 100.938 151.975 100.919 152.157 100.881C152.436 100.83 152.663 100.707 152.836 100.512C153.014 100.313 153.103 100.049 153.103 99.7189C153.103 99.4396 153.035 99.2027 152.9 99.008C152.764 98.8133 152.568 98.6716 152.31 98.5827C152.056 98.4938 151.501 98.4494 150.646 98.4494H149.129Z" fill="#FAFF06"/>
</svg>
