<svg width="114" height="67" viewBox="0 0 114 67" fill="none" xmlns="http://www.w3.org/2000/svg">
<rect x="0.75" y="0.75" width="112.5" height="47.5" fill="#D9D9D9" stroke="#0000CC" stroke-width="1.5"/>
<path d="M15.1567 12.9463H38.6895V19.1328H30.7939V38H23.0522V19.1328H15.1567V12.9463Z" fill="#0000CC"/>
<path d="M15.1567 12.9463V12.1963H14.4067V12.9463H15.1567ZM38.6895 12.9463H39.4395V12.1963H38.6895V12.9463ZM38.6895 19.1328V19.8828H39.4395V19.1328H38.6895ZM30.7939 19.1328V18.3828H30.0439V19.1328H30.7939ZM30.7939 38V38.75H31.5439V38H30.7939ZM23.0522 38H22.3022V38.75H23.0522V38ZM23.0522 19.1328H23.8022V18.3828H23.0522V19.1328ZM15.1567 19.1328H14.4067V19.8828H15.1567V19.1328ZM15.1567 13.6963H38.6895V12.1963H15.1567V13.6963ZM37.9395 12.9463V19.1328H39.4395V12.9463H37.9395ZM38.6895 18.3828H30.7939V19.8828H38.6895V18.3828ZM30.0439 19.1328V38H31.5439V19.1328H30.0439ZM30.7939 37.25H23.0522V38.75H30.7939V37.25ZM23.8022 38V19.1328H22.3022V38H23.8022ZM23.0522 18.3828H15.1567V19.8828H23.0522V18.3828ZM15.9067 19.1328V12.9463H14.4067V19.1328H15.9067Z" fill="#0000CC"/>
<path d="M94.6226 27.7632L101.407 29.814C100.951 31.7166 100.234 33.306 99.2539 34.582C98.2741 35.8581 97.055 36.8208 95.5967 37.4702C94.1497 38.1196 92.304 38.4443 90.0596 38.4443C87.3366 38.4443 85.1092 38.0513 83.3774 37.2651C81.6571 36.4676 80.1702 35.0719 78.917 33.0781C77.6637 31.0843 77.0371 28.5322 77.0371 25.4219C77.0371 21.2747 78.1366 18.0903 80.3354 15.8687C82.5457 13.6356 85.6675 12.519 89.7007 12.519C92.8566 12.519 95.3346 13.1571 97.1348 14.4331C98.9463 15.7091 100.291 17.6688 101.168 20.312L94.332 21.833C94.0928 21.0697 93.8421 20.5114 93.5801 20.1582C93.1471 19.5658 92.6174 19.11 91.9907 18.791C91.3641 18.472 90.6634 18.3125 89.8887 18.3125C88.1341 18.3125 86.7897 19.0189 85.8555 20.4316C85.1491 21.4798 84.7959 23.1261 84.7959 25.3706C84.7959 28.1506 85.2174 30.0589 86.0605 31.0957C86.9036 32.1211 88.0885 32.6338 89.6152 32.6338C91.0964 32.6338 92.2129 32.2179 92.9648 31.3862C93.7282 30.5545 94.2808 29.3468 94.6226 27.7632Z" fill="#FF0000"/>
<path d="M94.6226 27.7632L94.8396 27.0453L94.061 26.8099L93.8894 27.605L94.6226 27.7632ZM101.407 29.814L102.137 29.9887L102.301 29.3007L101.624 29.096L101.407 29.814ZM95.5967 37.4702L95.2916 36.7851L95.2896 36.786L95.5967 37.4702ZM83.3774 37.2651L83.062 37.9456L83.0674 37.9481L83.3774 37.2651ZM80.3354 15.8687L79.8024 15.341L79.8024 15.3411L80.3354 15.8687ZM97.1348 14.4331L96.701 15.045L96.7029 15.0463L97.1348 14.4331ZM101.168 20.312L101.331 21.0441L102.141 20.8638L101.88 20.0758L101.168 20.312ZM94.332 21.833L93.6164 22.0573L93.8224 22.7147L94.4949 22.5651L94.332 21.833ZM93.5801 20.1582L92.9745 20.6007L92.9778 20.6051L93.5801 20.1582ZM91.9907 18.791L92.331 18.1226L91.9907 18.791ZM85.8555 20.4316L86.4774 20.8508L86.4811 20.8453L85.8555 20.4316ZM86.0605 31.0957L85.4786 31.5689L85.4812 31.572L86.0605 31.0957ZM92.9648 31.3862L92.4123 30.8791L92.4085 30.8832L92.9648 31.3862ZM94.4056 28.4811L101.19 30.5319L101.624 29.096L94.8396 27.0453L94.4056 28.4811ZM100.678 29.6393C100.241 31.4612 99.5624 32.9488 98.659 34.1253L99.8488 35.0388C100.905 33.6632 101.662 31.9721 102.137 29.9887L100.678 29.6393ZM98.659 34.1253C97.7547 35.303 96.6349 36.1869 95.2916 36.7851L95.9018 38.1554C97.4751 37.4547 98.7935 36.4131 99.8488 35.0388L98.659 34.1253ZM95.2896 36.786C93.9706 37.378 92.239 37.6943 90.0596 37.6943V39.1943C92.369 39.1943 94.3289 38.8613 95.9038 38.1545L95.2896 36.786ZM90.0596 37.6943C87.4008 37.6943 85.2893 37.3093 83.6875 36.5822L83.0674 37.9481C84.9292 38.7932 87.2724 39.1943 90.0596 39.1943V37.6943ZM83.6929 36.5847C82.1325 35.8614 80.7468 34.5798 79.552 32.679L78.282 33.4773C79.5937 35.564 81.1816 37.0739 83.062 37.9456L83.6929 36.5847ZM79.552 32.679C78.3944 30.8374 77.7871 28.4353 77.7871 25.4219H76.2871C76.2871 28.6292 76.9331 31.3312 78.282 33.4773L79.552 32.679ZM77.7871 25.4219C77.7871 21.4056 78.8494 18.4363 80.8685 16.3962L79.8024 15.3411C77.4237 17.7444 76.2871 21.1439 76.2871 25.4219H77.7871ZM80.8685 16.3963C82.9009 14.3429 85.8082 13.269 89.7007 13.269V11.769C85.5268 11.769 82.1906 12.9283 79.8024 15.341L80.8685 16.3963ZM89.7007 13.269C92.7655 13.269 95.0716 13.8899 96.701 15.045L97.5685 13.8212C95.5977 12.4242 92.9477 11.769 89.7007 11.769V13.269ZM96.7029 15.0463C98.3527 16.2084 99.6163 18.0178 100.456 20.5483L101.88 20.0758C100.965 17.3198 99.5399 15.2099 97.5667 13.82L96.7029 15.0463ZM101.005 19.5799L94.1691 21.1009L94.4949 22.5651L101.331 21.0441L101.005 19.5799ZM95.0477 21.6087C94.8004 20.8196 94.5197 20.166 94.1824 19.7113L92.9778 20.6051C93.1645 20.8568 93.3852 21.3197 93.6164 22.0573L95.0477 21.6087ZM94.1856 19.7157C93.6863 19.0324 93.0672 18.4974 92.331 18.1226L91.6505 19.4594C92.1675 19.7226 92.6079 20.0991 92.9745 20.6007L94.1856 19.7157ZM92.331 18.1226C91.5886 17.7447 90.7694 17.5625 89.8887 17.5625V19.0625C90.5574 19.0625 91.1396 19.1993 91.6505 19.4594L92.331 18.1226ZM89.8887 17.5625C87.8932 17.5625 86.3089 18.3863 85.2299 20.0179L86.4811 20.8453C87.2705 19.6515 88.375 19.0625 89.8887 19.0625V17.5625ZM85.2335 20.0125C84.4009 21.248 84.0459 23.0781 84.0459 25.3706H85.5459C85.5459 23.1741 85.8973 21.7116 86.4774 20.8508L85.2335 20.0125ZM84.0459 25.3706C84.0459 28.1688 84.4585 30.3144 85.4787 31.5689L86.6424 30.6225C85.9764 29.8035 85.5459 28.1323 85.5459 25.3706H84.0459ZM85.4812 31.572C86.4891 32.7979 87.9019 33.3838 89.6152 33.3838V31.8838C88.2751 31.8838 87.3182 31.4443 86.6399 30.6194L85.4812 31.572ZM89.6152 33.3838C91.2367 33.3838 92.5852 32.9245 93.5212 31.8892L92.4085 30.8832C91.8406 31.5114 90.956 31.8838 89.6152 31.8838V33.3838ZM93.5174 31.8934C94.4018 30.9298 94.9973 29.5819 95.3557 27.9214L93.8894 27.605C93.5642 29.1118 93.0546 30.1793 92.4123 30.8791L93.5174 31.8934Z" fill="#0000CC"/>
<path d="M46.6567 12.9463H70.1895V19.1328H62.2939V38H54.5522V19.1328H46.6567V12.9463Z" fill="#FAFF06"/>
<path d="M46.6567 12.9463V12.1963H45.9067V12.9463H46.6567ZM70.1895 12.9463H70.9395V12.1963H70.1895V12.9463ZM70.1895 19.1328V19.8828H70.9395V19.1328H70.1895ZM62.2939 19.1328V18.3828H61.5439V19.1328H62.2939ZM62.2939 38V38.75H63.0439V38H62.2939ZM54.5522 38H53.8022V38.75H54.5522V38ZM54.5522 19.1328H55.3022V18.3828H54.5522V19.1328ZM46.6567 19.1328H45.9067V19.8828H46.6567V19.1328ZM46.6567 13.6963H70.1895V12.1963H46.6567V13.6963ZM69.4395 12.9463V19.1328H70.9395V12.9463H69.4395ZM70.1895 18.3828H62.2939V19.8828H70.1895V18.3828ZM61.5439 19.1328V38H63.0439V19.1328H61.5439ZM62.2939 37.25H54.5522V38.75H62.2939V37.25ZM55.3022 38V19.1328H53.8022V38H55.3022ZM54.5522 18.3828H46.6567V19.8828H54.5522V18.3828ZM47.4067 19.1328V12.9463H45.9067V19.1328H47.4067Z" fill="#0000CC"/>
<path d="M4.87451 66V59.458H2.53809V58.126H8.79541V59.458H6.46436V66H4.87451ZM10.3283 66V58.126H11.9182V66H10.3283ZM14.0043 66V58.126H15.5512L18.7738 63.3843V58.126H20.2509V66H18.6557L15.4813 60.8652V66H14.0043ZM24.5553 66V62.686L21.671 58.126H23.5348L25.3878 61.2412L27.2032 58.126H29.0348L26.1397 62.6968V66H24.5553ZM35.5542 66V59.458H33.2178V58.126H39.4751V59.458H37.144V66H35.5542ZM41.0617 66V58.126H42.6516V61.2251H45.7668V58.126H47.3566V66H45.7668V62.5571H42.6516V66H41.0617ZM49.5072 66V58.126H51.0971V66H49.5072ZM53.1832 66V58.126H54.7301L57.9527 63.3843V58.126H59.4298V66H57.8346L54.6603 60.8652V66H53.1832ZM65.3294 63.105V61.7783H68.7562V64.915C68.4231 65.2373 67.9397 65.522 67.306 65.769C66.6757 66.0125 66.0366 66.1343 65.3885 66.1343C64.5649 66.1343 63.847 65.9624 63.2347 65.6187C62.6224 65.2713 62.1622 64.7772 61.8543 64.1362C61.5464 63.4917 61.3924 62.7917 61.3924 62.0361C61.3924 61.2161 61.5643 60.4875 61.908 59.8501C62.2518 59.2127 62.7549 58.724 63.4173 58.3838C63.9222 58.1224 64.5506 57.9917 65.3025 57.9917C66.2801 57.9917 67.0428 58.1976 67.5906 58.6094C68.1421 59.0176 68.4966 59.5833 68.6541 60.3066L67.075 60.6021C66.964 60.2153 66.7545 59.911 66.4466 59.689C66.1422 59.4634 65.7609 59.3506 65.3025 59.3506C64.6079 59.3506 64.0547 59.5708 63.6429 60.0112C63.2347 60.4517 63.0306 61.1051 63.0306 61.9717C63.0306 62.9062 63.2382 63.6081 63.6536 64.0771C64.069 64.5426 64.6132 64.7754 65.2864 64.7754C65.6194 64.7754 65.9524 64.7109 66.2854 64.582C66.622 64.4495 66.9103 64.2902 67.1502 64.104V63.105H65.3294ZM70.375 63.438L71.9219 63.2876C72.015 63.8068 72.203 64.1882 72.4858 64.4316C72.7723 64.6751 73.1572 64.7969 73.6406 64.7969C74.1527 64.7969 74.5376 64.6895 74.7954 64.4746C75.0568 64.2562 75.1875 64.002 75.1875 63.7119C75.1875 63.5257 75.132 63.3682 75.021 63.2393C74.9136 63.1068 74.7238 62.9922 74.4517 62.8955C74.2655 62.8311 73.8411 62.7165 73.1787 62.5518C72.3265 62.3405 71.7285 62.0809 71.3848 61.7729C70.9014 61.3397 70.6597 60.8115 70.6597 60.1885C70.6597 59.7874 70.7725 59.4132 70.998 59.0659C71.2272 58.715 71.5549 58.4482 71.981 58.2656C72.4106 58.083 72.9281 57.9917 73.5332 57.9917C74.5215 57.9917 75.2645 58.2083 75.7622 58.6416C76.2635 59.0749 76.5267 59.6532 76.5518 60.3765L74.9619 60.4463C74.8939 60.0417 74.7471 59.7516 74.5215 59.5762C74.2995 59.3971 73.9647 59.3076 73.5171 59.3076C73.0552 59.3076 72.6935 59.4025 72.4321 59.5923C72.2638 59.714 72.1797 59.877 72.1797 60.0811C72.1797 60.2673 72.2585 60.4266 72.416 60.5591C72.6165 60.7274 73.1035 60.9028 73.877 61.0854C74.6504 61.2681 75.2215 61.4578 75.5903 61.6548C75.9627 61.8481 76.2528 62.1149 76.4604 62.4551C76.6717 62.7917 76.7773 63.2088 76.7773 63.7065C76.7773 64.1577 76.652 64.5802 76.4014 64.9741C76.1507 65.368 75.7962 65.6616 75.3379 65.855C74.8796 66.0448 74.3084 66.1396 73.6245 66.1396C72.6291 66.1396 71.8646 65.9105 71.3311 65.4521C70.7975 64.9902 70.4788 64.3188 70.375 63.438ZM87.3144 63.105L88.8559 63.5938C88.6195 64.4531 88.2256 65.0923 87.6742 65.5112C87.1264 65.9266 86.4299 66.1343 85.5849 66.1343C84.5393 66.1343 83.6799 65.778 83.0067 65.0654C82.3336 64.3493 81.997 63.3717 81.997 62.1328C81.997 60.8223 82.3354 59.8053 83.0121 59.082C83.6889 58.3551 84.5787 57.9917 85.6815 57.9917C86.6448 57.9917 87.4271 58.2764 88.0287 58.8457C88.3868 59.1823 88.6553 59.6657 88.8344 60.2959L87.2606 60.6719C87.1675 60.2637 86.9724 59.9414 86.6752 59.7051C86.3816 59.4688 86.0235 59.3506 85.601 59.3506C85.0173 59.3506 84.5429 59.5601 84.1776 59.979C83.816 60.3979 83.6352 61.0765 83.6352 62.0146C83.6352 63.0101 83.8142 63.7191 84.1723 64.1416C84.5303 64.5641 84.9958 64.7754 85.5687 64.7754C85.9913 64.7754 86.3547 64.6411 86.6591 64.3726C86.9634 64.104 87.1819 63.6815 87.3144 63.105ZM90.8185 66V58.1904H92.4083V64.6733H96.3614V66H90.8185ZM98.0394 58.126H99.6292V62.3906C99.6292 63.0674 99.6489 63.506 99.6883 63.7065C99.7563 64.0288 99.9174 64.2884 100.172 64.4854C100.429 64.6787 100.78 64.7754 101.224 64.7754C101.676 64.7754 102.016 64.6841 102.245 64.5015C102.474 64.3153 102.612 64.0879 102.658 63.8193C102.705 63.5508 102.728 63.105 102.728 62.4819V58.126H104.318V62.2617C104.318 63.207 104.275 63.8748 104.189 64.2651C104.103 64.6554 103.944 64.9849 103.711 65.2534C103.482 65.522 103.174 65.7368 102.787 65.8979C102.401 66.0555 101.896 66.1343 101.273 66.1343C100.521 66.1343 99.9497 66.0483 99.5594 65.8765C99.1727 65.701 98.8665 65.4754 98.6409 65.1997C98.4153 64.9204 98.2667 64.6286 98.1951 64.3242C98.0913 63.873 98.0394 63.207 98.0394 62.3262V58.126ZM106.555 58.126H109.702C110.325 58.126 110.789 58.1528 111.093 58.2065C111.401 58.2567 111.675 58.3641 111.915 58.5288C112.159 58.6935 112.361 58.9137 112.522 59.1895C112.683 59.4616 112.764 59.7677 112.764 60.1079C112.764 60.4767 112.663 60.8151 112.463 61.123C112.266 61.431 111.997 61.6619 111.657 61.8159C112.137 61.9556 112.506 62.1937 112.764 62.5303C113.021 62.8669 113.15 63.2625 113.15 63.7173C113.15 64.0754 113.066 64.4245 112.898 64.7646C112.733 65.1012 112.506 65.3716 112.216 65.5757C111.929 65.7762 111.575 65.8997 111.152 65.9463C110.887 65.9749 110.248 65.9928 109.235 66H106.555V58.126ZM108.145 59.4365V61.2573H109.187C109.806 61.2573 110.191 61.2484 110.341 61.2305C110.613 61.1982 110.826 61.1051 110.98 60.9512C111.138 60.7936 111.217 60.5877 111.217 60.3335C111.217 60.09 111.149 59.8931 111.013 59.7427C110.88 59.5887 110.681 59.4956 110.417 59.4634C110.259 59.4455 109.806 59.4365 109.058 59.4365H108.145ZM108.145 62.5679V64.6733H109.616C110.189 64.6733 110.553 64.6572 110.707 64.625C110.943 64.582 111.134 64.4782 111.281 64.3135C111.432 64.1452 111.507 63.9214 111.507 63.6421C111.507 63.4058 111.45 63.2052 111.335 63.0405C111.22 62.8758 111.054 62.7559 110.835 62.6807C110.621 62.6055 110.152 62.5679 109.428 62.5679H108.145Z" fill="#FAFF06"/>
</svg>
