<svg width="868" height="75" viewBox="0 0 868 75" fill="none" xmlns="http://www.w3.org/2000/svg">
<g id="Group 27">
<rect id="Rectangle 158" x="0.5" y="2.5" width="49" height="48" fill="#D9D9D9" stroke="#FF0000"/>
<rect id="Rectangle 159" x="637.5" y="1.5" width="49" height="48" fill="#D9D9D9" stroke="#FF0000"/>
<rect id="Rectangle 160" x="61.5" y="26.5" width="48" height="48" fill="#D9D9D9" stroke="#FF0000"/>
<rect id="Rectangle 161" x="698.5" y="26.5" width="48" height="48" fill="#D9D9D9" stroke="#FF0000"/>
<rect id="Rectangle 162" x="121.5" y="1.5" width="48" height="48" fill="#D9D9D9" stroke="#FF0000"/>
<rect id="Rectangle 163" x="758.5" y="1.5" width="48" height="48" fill="#D9D9D9" stroke="#FF0000"/>
<rect id="Rectangle 164" x="181.5" y="26.5" width="49" height="48" fill="#D9D9D9" stroke="#FF0000"/>
<rect id="Rectangle 165" x="818.5" y="26.5" width="49" height="48" fill="#D9D9D9" stroke="#FF0000"/>
<rect id="Rectangle 166" x="258.5" y="26.5" width="48" height="48" fill="#D9D9D9" stroke="#FF0000"/>
<rect id="Rectangle 167" x="318.5" y="1.5" width="49" height="48" fill="#D9D9D9" stroke="#FF0000"/>
<rect id="Rectangle 168" x="379.5" y="26.5" width="48" height="48" fill="#D9D9D9" stroke="#FF0000"/>
<rect id="Rectangle 169" x="439.5" y="0.5" width="49" height="49" fill="#D9D9D9" stroke="#FF0000"/>
<rect id="Rectangle 170" x="500.5" y="26.5" width="48" height="48" fill="#D9D9D9" stroke="#FF0000"/>
<rect id="Rectangle 171" x="560.5" y="1.5" width="49" height="48" fill="#D9D9D9" stroke="#FF0000"/>
<path id="T" d="M13.1567 13.9463H36.6895V20.1328H28.7939V39H21.0522V20.1328H13.1567V13.9463Z" fill="#0000CC"/>
<path id="C" d="M667.623 28.7632L674.407 30.814C673.951 32.7166 673.234 34.306 672.254 35.582C671.274 36.8581 670.055 37.8208 668.597 38.4702C667.15 39.1196 665.304 39.4443 663.06 39.4443C660.337 39.4443 658.109 39.0513 656.377 38.2651C654.657 37.4676 653.17 36.0719 651.917 34.0781C650.664 32.0843 650.037 29.5322 650.037 26.4219C650.037 22.2747 651.137 19.0903 653.335 16.8687C655.546 14.6356 658.667 13.519 662.701 13.519C665.857 13.519 668.335 14.1571 670.135 15.4331C671.946 16.7091 673.291 18.6688 674.168 21.312L667.332 22.833C667.093 22.0697 666.842 21.5114 666.58 21.1582C666.147 20.5658 665.617 20.11 664.991 19.791C664.364 19.472 663.663 19.3125 662.889 19.3125C661.134 19.3125 659.79 20.0189 658.855 21.4316C658.149 22.4798 657.796 24.1261 657.796 26.3706C657.796 29.1506 658.217 31.0589 659.061 32.0957C659.904 33.1211 661.089 33.6338 662.615 33.6338C664.096 33.6338 665.213 33.2179 665.965 32.3862C666.728 31.5545 667.281 30.3468 667.623 28.7632Z" fill="#FF0000"/>
<path id="I" d="M81.5522 38.9463H89.311V64H81.5522V38.9463Z" fill="#FAFF06"/>
<path id="L" d="M713.391 38.9463H721.133V57.8306H733.215V64H713.391V38.9463Z" fill="#FAFF06"/>
<path id="N" d="M134.037 12.9463H141.266L150.7 26.8062V12.9463H157.997V38H150.7L141.317 24.2427V38H134.037V12.9463Z" fill="#A1C001"/>
<path id="U" d="M787.29 12.9463H795.014V27.8828C795.014 29.3639 794.781 30.7653 794.313 32.0869C793.858 33.3971 793.134 34.5479 792.143 35.5391C791.163 36.5189 790.132 37.2082 789.05 37.6069C787.546 38.1652 785.74 38.4443 783.632 38.4443C782.413 38.4443 781.08 38.3589 779.633 38.188C778.198 38.0171 776.996 37.681 776.027 37.1797C775.059 36.667 774.17 35.9435 773.361 35.0093C772.564 34.075 772.017 33.1123 771.721 32.1211C771.242 30.526 771.003 29.1133 771.003 27.8828V12.9463H778.728V28.2417C778.728 29.6089 779.104 30.6799 779.855 31.4546C780.619 32.2179 781.673 32.5996 783.017 32.5996C784.35 32.5996 785.393 32.2236 786.145 31.4717C786.908 30.7083 787.29 29.6317 787.29 28.2417V12.9463Z" fill="#A1C001"/>
<path id="Y" d="M192.414 38.9463H201.01L206.068 47.4058L211.127 38.9463H219.672L209.931 53.5068V64H202.172V53.5068L192.414 38.9463Z" fill="#FF0000"/>
<path id="B" d="M831.96 38.9463H846.452C848.868 38.9463 850.719 39.5444 852.006 40.7407C853.305 41.937 853.955 43.4181 853.955 45.1841C853.955 46.6652 853.493 47.9355 852.57 48.9951C851.955 49.7015 851.055 50.2598 849.87 50.6699C851.67 51.1029 852.992 51.8491 853.835 52.9087C854.689 53.9569 855.117 55.2785 855.117 56.8735C855.117 58.1724 854.815 59.3402 854.211 60.377C853.607 61.4137 852.781 62.234 851.733 62.8379C851.083 63.2139 850.104 63.4873 848.793 63.6582C847.05 63.8861 845.894 64 845.324 64H831.96V38.9463ZM839.77 48.7729H843.137C844.344 48.7729 845.182 48.5679 845.649 48.1577C846.127 47.7362 846.367 47.1323 846.367 46.3462C846.367 45.617 846.127 45.0474 845.649 44.6372C845.182 44.2271 844.361 44.022 843.188 44.022H839.77V48.7729ZM839.77 58.6167H843.718C845.051 58.6167 845.991 58.3831 846.538 57.916C847.084 57.4375 847.358 56.7995 847.358 56.002C847.358 55.2614 847.084 54.6689 846.538 54.2246C846.002 53.7689 845.056 53.541 843.701 53.541H839.77V58.6167Z" fill="#0000CC"/>
<path id="T_2" d="M270.657 38.9463H294.189V45.1328H286.294V64H278.552V45.1328H270.657V38.9463Z" fill="#FAFF06"/>
<path id="H" d="M331.02 12.9463H338.762V21.7134H347.221V12.9463H354.997V38H347.221V27.8657H338.762V38H331.02V12.9463Z" fill="#0000CC"/>
<path id="I_2" d="M400.052 38.9463H407.811V64H400.052V38.9463Z" fill="#A1C001"/>
<path id="N_2" d="M452.537 12.9463H459.766L469.2 26.8062V12.9463H476.497V38H469.2L459.817 24.2427V38H452.537V12.9463Z" fill="#FF0000"/>
<path id="G" d="M525.581 54.9253V49.7129H537.544V60.394C535.254 61.9549 533.226 63.0202 531.46 63.5898C529.705 64.1481 527.62 64.4272 525.205 64.4272C522.231 64.4272 519.805 63.9202 517.925 62.9062C516.056 61.8923 514.604 60.3826 513.567 58.3774C512.542 56.3722 512.029 54.0708 512.029 51.4731C512.029 48.7388 512.593 46.3633 513.721 44.3467C514.849 42.3187 516.501 40.7806 518.677 39.7324C520.374 38.9235 522.659 38.519 525.53 38.519C528.298 38.519 530.366 38.7697 531.733 39.271C533.112 39.7723 534.251 40.5527 535.151 41.6123C536.063 42.6605 536.746 43.9935 537.202 45.6113L529.734 46.9443C529.426 45.9987 528.902 45.2752 528.162 44.7739C527.432 44.2726 526.498 44.022 525.359 44.022C523.661 44.022 522.306 44.6144 521.292 45.7993C520.289 46.9728 519.788 48.8356 519.788 51.3877C519.788 54.0993 520.295 56.0361 521.309 57.1982C522.334 58.3604 523.758 58.9414 525.581 58.9414C526.447 58.9414 527.273 58.8161 528.059 58.5654C528.845 58.3148 529.745 57.8875 530.759 57.2837V54.9253H525.581Z" fill="#0000CC"/>
<path id="S" d="M574.567 29.7114L581.933 29.25C582.092 30.4463 582.417 31.3577 582.907 31.9844C583.704 32.9984 584.844 33.5054 586.325 33.5054C587.43 33.5054 588.279 33.249 588.871 32.7363C589.475 32.2122 589.777 31.6084 589.777 30.9248C589.777 30.2754 589.492 29.6943 588.922 29.1816C588.353 28.6689 587.031 28.1847 584.958 27.729C581.562 26.9657 579.141 25.9517 577.694 24.687C576.236 23.4224 575.507 21.8102 575.507 19.8506C575.507 18.5632 575.877 17.3498 576.618 16.2104C577.37 15.0597 578.492 14.1597 579.984 13.5103C581.488 12.8494 583.545 12.519 586.154 12.519C589.355 12.519 591.793 13.1172 593.468 14.3135C595.154 15.4984 596.157 17.3896 596.476 19.9873L589.179 20.4146C588.985 19.2866 588.575 18.4663 587.948 17.9536C587.333 17.4409 586.479 17.1846 585.385 17.1846C584.485 17.1846 583.807 17.3783 583.351 17.7656C582.895 18.1416 582.667 18.603 582.667 19.1499C582.667 19.5487 582.855 19.9076 583.231 20.2266C583.596 20.557 584.462 20.8646 585.829 21.1494C589.213 21.8786 591.634 22.6191 593.092 23.3711C594.562 24.1117 595.627 25.0345 596.288 26.1396C596.96 27.2448 597.296 28.481 597.296 29.8481C597.296 31.4546 596.852 32.9357 595.963 34.2915C595.075 35.6473 593.833 36.6784 592.238 37.3848C590.643 38.0798 588.632 38.4272 586.205 38.4272C581.944 38.4272 578.993 37.6069 577.353 35.9663C575.712 34.3257 574.783 32.2407 574.567 29.7114Z" fill="#A1C001"/>
</g>
</svg>
