<svg width="870" height="77" viewBox="0 0 870 77" fill="none" xmlns="http://www.w3.org/2000/svg">
<g id="big logo">
<rect id="Rectangle 158" x="1" y="3" width="50" height="49" fill="#D9D9D9" stroke="#FF0000" stroke-width="1.5"/>
<rect id="Rectangle 159" x="638" y="2" width="50" height="49" fill="#D9D9D9" stroke="#FF0000" stroke-width="1.5"/>
<rect id="Rectangle 160" x="62" y="27" width="49" height="49" fill="#D9D9D9" stroke="#FF0000" stroke-width="1.5"/>
<rect id="Rectangle 161" x="699" y="27" width="49" height="49" fill="#D9D9D9" stroke="#FF0000" stroke-width="1.5"/>
<rect id="Rectangle 162" x="122" y="2" width="49" height="49" fill="#D9D9D9" stroke="#FF0000" stroke-width="1.5"/>
<rect id="Rectangle 163" x="759" y="2" width="49" height="49" fill="#D9D9D9" stroke="#FF0000" stroke-width="1.5"/>
<rect id="Rectangle 164" x="182" y="27" width="50" height="49" fill="#D9D9D9" stroke="#FF0000" stroke-width="1.5"/>
<rect id="Rectangle 165" x="819" y="27" width="50" height="49" fill="#D9D9D9" stroke="#FF0000" stroke-width="1.5"/>
<rect id="Rectangle 166" x="259" y="27" width="49" height="49" fill="#D9D9D9" stroke="#FF0000" stroke-width="1.5"/>
<rect id="Rectangle 167" x="319" y="2" width="50" height="49" fill="#D9D9D9" stroke="#FF0000" stroke-width="1.5"/>
<rect id="Rectangle 168" x="380" y="27" width="49" height="49" fill="#D9D9D9" stroke="#FF0000" stroke-width="1.5"/>
<rect id="Rectangle 169" x="440" y="1" width="50" height="50" fill="#D9D9D9" stroke="#FF0000" stroke-width="1.5"/>
<rect id="Rectangle 170" x="501" y="27" width="49" height="49" fill="#D9D9D9" stroke="#FF0000" stroke-width="1.5"/>
<rect id="Rectangle 171" x="561" y="2" width="50" height="49" fill="#D9D9D9" stroke="#FF0000" stroke-width="1.5"/>
<path id="T" d="M14.1567 14.9463H37.6895V21.1328H29.7939V40H22.0522V21.1328H14.1567V14.9463Z" fill="#0000CC"/>
<path id="C" d="M668.623 29.7632L675.407 31.814C674.951 33.7166 674.234 35.306 673.254 36.582C672.274 37.8581 671.055 38.8208 669.597 39.4702C668.15 40.1196 666.304 40.4443 664.06 40.4443C661.337 40.4443 659.109 40.0513 657.377 39.2651C655.657 38.4676 654.17 37.0719 652.917 35.0781C651.664 33.0843 651.037 30.5322 651.037 27.4219C651.037 23.2747 652.137 20.0903 654.335 17.8687C656.546 15.6356 659.667 14.519 663.701 14.519C666.857 14.519 669.335 15.1571 671.135 16.4331C672.946 17.7091 674.291 19.6688 675.168 22.312L668.332 23.833C668.093 23.0697 667.842 22.5114 667.58 22.1582C667.147 21.5658 666.617 21.11 665.991 20.791C665.364 20.472 664.663 20.3125 663.889 20.3125C662.134 20.3125 660.79 21.0189 659.855 22.4316C659.149 23.4798 658.796 25.1261 658.796 27.3706C658.796 30.1506 659.217 32.0589 660.061 33.0957C660.904 34.1211 662.089 34.6338 663.615 34.6338C665.096 34.6338 666.213 34.2179 666.965 33.3862C667.728 32.5545 668.281 31.3468 668.623 29.7632Z" fill="#FF0000"/>
<path id="I" d="M82.5522 39.9463H90.311V65H82.5522V39.9463Z" fill="#FAFF06"/>
<path id="L" d="M714.391 39.9463H722.133V58.8306H734.215V65H714.391V39.9463Z" fill="#FAFF06"/>
<path id="N" d="M135.037 13.9463H142.266L151.7 27.8062V13.9463H158.997V39H151.7L142.317 25.2427V39H135.037V13.9463Z" fill="#A1C001"/>
<path id="U" d="M788.29 13.9463H796.014V28.8828C796.014 30.3639 795.781 31.7653 795.313 33.0869C794.858 34.3971 794.134 35.5479 793.143 36.5391C792.163 37.5189 791.132 38.2082 790.05 38.6069C788.546 39.1652 786.74 39.4443 784.632 39.4443C783.413 39.4443 782.08 39.3589 780.633 39.188C779.198 39.0171 777.996 38.681 777.027 38.1797C776.059 37.667 775.17 36.9435 774.361 36.0093C773.564 35.075 773.017 34.1123 772.721 33.1211C772.242 31.526 772.003 30.1133 772.003 28.8828V13.9463H779.728V29.2417C779.728 30.6089 780.104 31.6799 780.855 32.4546C781.619 33.2179 782.673 33.5996 784.017 33.5996C785.35 33.5996 786.393 33.2236 787.145 32.4717C787.908 31.7083 788.29 30.6317 788.29 29.2417V13.9463Z" fill="#A1C001"/>
<path id="Y" d="M193.414 39.9463H202.01L207.068 48.4058L212.127 39.9463H220.672L210.931 54.5068V65H203.172V54.5068L193.414 39.9463Z" fill="#FF0000"/>
<path id="B" d="M832.96 39.9463H847.452C849.868 39.9463 851.719 40.5444 853.006 41.7407C854.305 42.937 854.955 44.4181 854.955 46.1841C854.955 47.6652 854.493 48.9355 853.57 49.9951C852.955 50.7015 852.055 51.2598 850.87 51.6699C852.67 52.1029 853.992 52.8491 854.835 53.9087C855.689 54.9569 856.117 56.2785 856.117 57.8735C856.117 59.1724 855.815 60.3402 855.211 61.377C854.607 62.4137 853.781 63.234 852.733 63.8379C852.083 64.2139 851.104 64.4873 849.793 64.6582C848.05 64.8861 846.894 65 846.324 65H832.96V39.9463ZM840.77 49.7729H844.137C845.344 49.7729 846.182 49.5679 846.649 49.1577C847.127 48.7362 847.367 48.1323 847.367 47.3462C847.367 46.617 847.127 46.0474 846.649 45.6372C846.182 45.2271 845.361 45.022 844.188 45.022H840.77V49.7729ZM840.77 59.6167H844.718C846.051 59.6167 846.991 59.3831 847.538 58.916C848.084 58.4375 848.358 57.7995 848.358 57.002C848.358 56.2614 848.084 55.6689 847.538 55.2246C847.002 54.7689 846.056 54.541 844.701 54.541H840.77V59.6167Z" fill="#0000CC"/>
<path id="T_2" d="M271.657 39.9463H295.189V46.1328H287.294V65H279.552V46.1328H271.657V39.9463Z" fill="#FAFF06"/>
<path id="H" d="M332.02 13.9463H339.762V22.7134H348.221V13.9463H355.997V39H348.221V28.8657H339.762V39H332.02V13.9463Z" fill="#0000CC"/>
<path id="I_2" d="M401.052 39.9463H408.811V65H401.052V39.9463Z" fill="#A1C001"/>
<path id="N_2" d="M453.537 13.9463H460.766L470.2 27.8062V13.9463H477.497V39H470.2L460.817 25.2427V39H453.537V13.9463Z" fill="#FF0000"/>
<path id="G" d="M526.581 55.9253V50.7129H538.544V61.394C536.254 62.9549 534.226 64.0202 532.46 64.5898C530.705 65.1481 528.62 65.4272 526.205 65.4272C523.231 65.4272 520.805 64.9202 518.925 63.9062C517.056 62.8923 515.604 61.3826 514.567 59.3774C513.542 57.3722 513.029 55.0708 513.029 52.4731C513.029 49.7388 513.593 47.3633 514.721 45.3467C515.849 43.3187 517.501 41.7806 519.677 40.7324C521.374 39.9235 523.659 39.519 526.53 39.519C529.298 39.519 531.366 39.7697 532.733 40.271C534.112 40.7723 535.251 41.5527 536.151 42.6123C537.063 43.6605 537.746 44.9935 538.202 46.6113L530.734 47.9443C530.426 46.9987 529.902 46.2752 529.162 45.7739C528.432 45.2726 527.498 45.022 526.359 45.022C524.661 45.022 523.306 45.6144 522.292 46.7993C521.289 47.9728 520.788 49.8356 520.788 52.3877C520.788 55.0993 521.295 57.0361 522.309 58.1982C523.334 59.3604 524.758 59.9414 526.581 59.9414C527.447 59.9414 528.273 59.8161 529.059 59.5654C529.845 59.3148 530.745 58.8875 531.759 58.2837V55.9253H526.581Z" fill="#0000CC"/>
<path id="S" d="M575.567 30.7114L582.933 30.25C583.092 31.4463 583.417 32.3577 583.907 32.9844C584.704 33.9984 585.844 34.5054 587.325 34.5054C588.43 34.5054 589.279 34.249 589.871 33.7363C590.475 33.2122 590.777 32.6084 590.777 31.9248C590.777 31.2754 590.492 30.6943 589.922 30.1816C589.353 29.6689 588.031 29.1847 585.958 28.729C582.562 27.9657 580.141 26.9517 578.694 25.687C577.236 24.4224 576.507 22.8102 576.507 20.8506C576.507 19.5632 576.877 18.3498 577.618 17.2104C578.37 16.0597 579.492 15.1597 580.984 14.5103C582.488 13.8494 584.545 13.519 587.154 13.519C590.355 13.519 592.793 14.1172 594.468 15.3135C596.154 16.4984 597.157 18.3896 597.476 20.9873L590.179 21.4146C589.985 20.2866 589.575 19.4663 588.948 18.9536C588.333 18.4409 587.479 18.1846 586.385 18.1846C585.485 18.1846 584.807 18.3783 584.351 18.7656C583.895 19.1416 583.667 19.603 583.667 20.1499C583.667 20.5487 583.855 20.9076 584.231 21.2266C584.596 21.557 585.462 21.8646 586.829 22.1494C590.213 22.8786 592.634 23.6191 594.092 24.3711C595.562 25.1117 596.627 26.0345 597.288 27.1396C597.96 28.2448 598.296 29.481 598.296 30.8481C598.296 32.4546 597.852 33.9357 596.963 35.2915C596.075 36.6473 594.833 37.6784 593.238 38.3848C591.643 39.0798 589.632 39.4272 587.205 39.4272C582.944 39.4272 579.993 38.6069 578.353 36.9663C576.712 35.3257 575.783 33.2407 575.567 30.7114Z" fill="#A1C001"/>
</g>
</svg>
