<svg width="374" height="48" viewBox="0 0 374 48" fill="none" xmlns="http://www.w3.org/2000/svg">
<rect x="1" y="2.20068" width="30.2557" height="29.6506" fill="#D9D9D9" stroke="#FF0000" stroke-width="1.5"/>
<rect x="37.912" y="16.7234" width="29.6506" height="29.6506" fill="#D9D9D9" stroke="#FF0000" stroke-width="1.5"/>
<rect x="74.2188" y="1.59546" width="29.6506" height="29.6506" fill="#D9D9D9" stroke="#FF0000" stroke-width="1.5"/>
<rect x="110.526" y="16.7234" width="30.2557" height="29.6506" fill="#D9D9D9" stroke="#FF0000" stroke-width="1.5"/>
<rect x="147.438" y="1.59546" width="29.6506" height="29.6506" fill="#D9D9D9" stroke="#FF0000" stroke-width="1.5"/>
<rect x="183.744" y="16.7234" width="30.2557" height="29.6506" fill="#D9D9D9" stroke="#FF0000" stroke-width="1.5"/>
<path d="M8.94133 19.5879L13.5712 19.2979C13.6715 20.0498 13.8756 20.6227 14.1835 21.0166C14.6848 21.654 15.401 21.9727 16.332 21.9727C17.0266 21.9727 17.5601 21.8115 17.9325 21.4893C18.3121 21.1598 18.5019 20.7803 18.5019 20.3506C18.5019 19.9424 18.3228 19.5771 17.9648 19.2549C17.6067 18.9326 16.776 18.6283 15.4726 18.3418C13.3385 17.862 11.8167 17.2246 10.9071 16.4297C9.99048 15.6348 9.53215 14.6214 9.53215 13.3896C9.53215 12.5804 9.7649 11.8177 10.2304 11.1016C10.703 10.3783 11.4085 9.8125 12.3466 9.4043C13.2919 8.98893 14.5846 8.78125 16.2245 8.78125C18.2369 8.78125 19.7695 9.15723 20.8222 9.90918C21.8821 10.654 22.5123 11.8428 22.7128 13.4756L18.1259 13.7441C18.0042 13.0352 17.7463 12.5195 17.3525 12.1973C16.9657 11.875 16.4286 11.7139 15.7411 11.7139C15.1754 11.7139 14.7493 11.8356 14.4628 12.0791C14.1764 12.3154 14.0331 12.6055 14.0331 12.9492C14.0331 13.1999 14.1513 13.4255 14.3876 13.626C14.6168 13.8337 15.1611 14.027 16.0204 14.2061C18.1474 14.6644 19.6692 15.1299 20.5859 15.6025C21.5097 16.068 22.1793 16.6481 22.5946 17.3428C23.0172 18.0374 23.2284 18.8145 23.2284 19.6738C23.2284 20.6836 22.9491 21.6146 22.3905 22.4668C21.832 23.319 21.0514 23.9671 20.0488 24.4111C19.0461 24.848 17.7821 25.0664 16.2568 25.0664C13.5784 25.0664 11.7236 24.5508 10.6923 23.5195C9.66106 22.4883 9.0774 21.1777 8.94133 19.5879Z" fill="#0000CC"/>
<path d="M55.4336 24.1775H60.2891V33.5662C60.2891 34.4972 60.1422 35.378 59.8486 36.2087C59.5622 37.0323 59.1074 37.7556 58.4844 38.3787C57.8685 38.9945 57.2204 39.4278 56.54 39.6785C55.5947 40.0294 54.4596 40.2048 53.1348 40.2048C52.3685 40.2048 51.5306 40.1511 50.6211 40.0437C49.7187 39.9363 48.9632 39.725 48.3545 39.4099C47.7458 39.0876 47.1872 38.6329 46.6787 38.0457C46.1774 37.4584 45.8336 36.8533 45.6474 36.2302C45.3467 35.2276 45.1963 34.3396 45.1963 33.5662V24.1775H50.0517V33.7917C50.0517 34.6511 50.2881 35.3243 50.7607 35.8113C51.2405 36.2911 51.903 36.531 52.748 36.531C53.5859 36.531 54.2412 36.2947 54.7139 35.822C55.1937 35.3422 55.4336 34.6654 55.4336 33.7917V24.1775Z" fill="#FAFF06"/>
<path d="M82.4071 8.44458H91.5165C93.0348 8.44458 94.1985 8.82056 95.0077 9.57251C95.8241 10.3245 96.2323 11.2555 96.2323 12.3655C96.2323 13.2965 95.9423 14.095 95.3622 14.761C94.9755 15.205 94.4098 15.5559 93.665 15.8137C94.7965 16.0859 95.6272 16.5549 96.1571 17.2209C96.6943 17.8798 96.9628 18.7105 96.9628 19.7131C96.9628 20.5295 96.773 21.2636 96.3935 21.9153C96.0139 22.567 95.4947 23.0826 94.8359 23.4622C94.4277 23.6985 93.8118 23.8704 92.9882 23.9778C91.8925 24.121 91.1656 24.1926 90.8075 24.1926H82.4071V8.44458ZM87.3163 14.6213H89.4325C90.1917 14.6213 90.718 14.4924 91.0116 14.2346C91.3124 13.9696 91.4628 13.5901 91.4628 13.0959C91.4628 12.6376 91.3124 12.2795 91.0116 12.0217C90.718 11.7639 90.2024 11.635 89.4648 11.635H87.3163V14.6213ZM87.3163 20.8088H89.7978C90.6357 20.8088 91.2265 20.662 91.5702 20.3684C91.914 20.0676 92.0859 19.6666 92.0859 19.1653C92.0859 18.6998 91.914 18.3274 91.5702 18.0481C91.2336 17.7616 90.6392 17.6184 89.787 17.6184H87.3163V20.8088Z" fill="#A1C001"/>
<path d="M116.823 23.3799H123.226L125.696 32.9619L128.156 23.3799H134.537V39.1279H130.563V27.1182L127.48 39.1279H123.881L120.809 27.1182V39.1279H116.823V23.3799Z" fill="#FF0000"/>
<path d="M159.781 8.25195H164.658V24H159.781V8.25195Z" fill="#FAFF06"/>
<path d="M191.428 23.5725H206.22V27.4612H201.257V39.3206H196.391V27.4612H191.428V23.5725Z" fill="#0000CC"/>
<rect x="234" y="16.7234" width="29.6506" height="29.6506" fill="#D9D9D9" stroke="#FF0000" stroke-width="1.5"/>
<rect x="270.307" y="1.59546" width="29.6506" height="29.6506" fill="#D9D9D9" stroke="#FF0000" stroke-width="1.5"/>
<rect x="306.614" y="16.7234" width="30.2557" height="29.6506" fill="#D9D9D9" stroke="#FF0000" stroke-width="1.5"/>
<rect x="343.526" y="1.59546" width="29.6506" height="29.6506" fill="#D9D9D9" stroke="#FF0000" stroke-width="1.5"/>
<path d="M241.295 24.1775H246.161V29.6882H251.479V24.1775H256.366V39.9255H251.479V33.5554H246.161V39.9255H241.295V24.1775Z" fill="#FF0000"/>
<path d="M279.086 8.44458H292.127V11.8069H283.963V14.3098H291.536V17.5217H283.963V20.6262H292.363V24.1926H279.086V8.44458Z" fill="#FAFF06"/>
<path d="M314.856 39.1279V23.3799H322.966C324.47 23.3799 325.619 23.5088 326.414 23.7666C327.209 24.0244 327.85 24.5042 328.337 25.2061C328.824 25.9007 329.068 26.7493 329.068 27.752C329.068 28.6257 328.881 29.3812 328.509 30.0186C328.137 30.6488 327.625 31.1608 326.973 31.5547C326.558 31.8053 325.988 32.013 325.265 32.1777C325.845 32.3711 326.268 32.5645 326.533 32.7578C326.712 32.8867 326.969 33.1624 327.306 33.585C327.65 34.0075 327.879 34.3333 327.993 34.5625L330.346 39.1279H324.846L322.246 34.3154C321.917 33.6924 321.623 33.2878 321.366 33.1016C321.015 32.8581 320.617 32.7363 320.173 32.7363H319.743V39.1279H314.856ZM319.743 29.7607H321.795C322.017 29.7607 322.447 29.6891 323.084 29.5459C323.407 29.4814 323.668 29.3167 323.868 29.0518C324.076 28.7868 324.18 28.4824 324.18 28.1387C324.18 27.6302 324.019 27.2399 323.697 26.9678C323.374 26.6956 322.769 26.5596 321.881 26.5596H319.743V29.7607Z" fill="#0000CC"/>
<path d="M352.002 8.25195H365.043V11.6143H356.879V14.1172H364.452V17.3291H356.879V20.4336H365.28V24H352.002V8.25195Z" fill="#A1C001"/>
</svg>
